<svg xmlns="http://www.w3.org/2000/svg" style="display: none;">
  <symbol id="new-list-btn" viewBox="0 0 22 22">
    <path d="M11 0C4.9 0 0 4.9 0 11C0 17.1 4.9 22 11 22C17.1 22 22 17.1 22 11C22 4.9 17.1 0 11 0ZM16 13H13V16C13 17.1 12.1 18 11 18C9.9 18 9 17.1 9 16V13H6C4.9 13 4 12.1 4 11C4 9.9 4.9 9 6 9H9V6C9 4.9 9.9 4 11 4C12.1 4 13 4.9 13 6V9H16C17.1 9 18 9.9 18 11C18 12.1 17.1 13 16 13Z" fill="black"/>
  </symbol>
  <symbol id="add-card-btn" viewBox="0 0 14 14">
    <path d="M13 6H8V1C8 0.448 7.552 0 7 0C6.448 0 6 0.448 6 1V6H1C0.448 6 0 6.448 0 7C0 7.552 0.448 8 1 8H6V13C6 13.552 6.448 14 7 14C7.552 14 8 13.552 8 13V8H13C13.552 8 14 7.552 14 7C14 6.448 13.552 6 13 6Z" fill="#5E6C84"/> 
  </symbol>
  <symbol id="user-menu-btn" viewBox="0 0 12 8">
    <path d="M1.415 0.209991L6 4.79499L10.585 0.209991L12 1.62499L6 7.62499L0 1.62499L1.415 0.209991Z" fill="white"/>
  </symbol>
</svg>